HIERARCHY
ROOT Hips
{
    OFFSET 0.000000 0.000000 0.000000
    CHANNELS 6 Xposition Yposition Zposition Zrotation Xrotation Yrotation
    JOINT Spine
    {
        OFFSET -0.000000 7.236184 0.000000
        CHANNELS 3 Zrotation Xrotation Yrotation
        JOINT Spine1
        {
            OFFSET -0.000000 20.420147 0.000000
            CHANNELS 3 Zrotation Xrotation Yrotation
            JOINT Neck
            {
                OFFSET -0.000000 20.336288 1.848754
                CHANNELS 3 Zrotation Xrotation Yrotation
                JOINT Head
                {
                    OFFSET -0.000000 12.354461 -1.764923
                    CHANNELS 3 Zrotation Xrotation Yrotation
                    End Site
                    {
                        OFFSET -0.000000 22.061537 0.000000
                    }
                }
            }
            JOINT LeftShoulder
            {
                OFFSET 3.573296 18.396038 -0.314103
                CHANNELS 3 Zrotation Xrotation Yrotation
                JOINT LeftArm
                {
                    OFFSET 10.880760 0.000000 0.000000
                    CHANNELS 3 Zrotation Xrotation Yrotation
                    JOINT LeftForeArm
                    {
                        OFFSET 27.185530 0.000000 0.000000
                        CHANNELS 3 Zrotation Xrotation Yrotation
                        JOINT LeftHand
                        {
                            OFFSET 27.825975 0.000000 0.000000
                            CHANNELS 3 Zrotation Xrotation Yrotation
                            End Site
                            {
                                OFFSET 13.236923 0.000000 0.000000
                            }
                        }
                    }
                }
            }
            JOINT RightShoulder
            {
                OFFSET -3.474926 18.396038 -0.314103
                CHANNELS 3 Zrotation Xrotation Yrotation
                JOINT RightArm
                {
                    OFFSET -10.880760 0.000000 0.000000
                    CHANNELS 3 Zrotation Xrotation Yrotation
                    JOINT RightForeArm
                    {
                        OFFSET -27.185530 0.000000 0.000000
                        CHANNELS 3 Zrotation Xrotation Yrotation
                        JOINT RightHand
                        {
                            OFFSET -27.825975 0.000000 0.000000
                            CHANNELS 3 Zrotation Xrotation Yrotation
                            End Site
                            {
                                OFFSET -13.236923 0.000000 0.000000
                            }
                        }
                    }
                }
            }
        }
    }
    JOINT LeftUpLeg
    {
        OFFSET 8.824615 0.000000 0.000000
        CHANNELS 3 Zrotation Xrotation Yrotation
        JOINT LeftLeg
        {
            OFFSET -0.000000 -35.111282 0.000000
            CHANNELS 3 Zrotation Xrotation Yrotation
            JOINT LeftFoot
            {
                OFFSET -0.000000 -42.324711 0.000000
                CHANNELS 3 Zrotation Xrotation Yrotation
                JOINT LeftToeBase
                {
                    OFFSET -0.000000 -5.735999 13.236923
                    CHANNELS 3 Zrotation Xrotation Yrotation
                    End Site
                    {
                        OFFSET -0.000000 0.000000 3.529846
                    }
                }
            }
        }
    }
    JOINT RightUpLeg
    {
        OFFSET -8.824615 0.000000 0.000000
        CHANNELS 3 Zrotation Xrotation Yrotation
        JOINT RightLeg
        {
            OFFSET -0.000000 -35.111282 0.000000
            CHANNELS 3 Zrotation Xrotation Yrotation
            JOINT RightFoot
            {
                OFFSET -0.000000 -42.324711 0.000000
                CHANNELS 3 Zrotation Xrotation Yrotation
                JOINT RightToeBase
                {
                    OFFSET -0.000000 -5.735999 13.236923
                    CHANNELS 3 Zrotation Xrotation Yrotation
                    End Site
                    {
                        OFFSET -0.000000 0.000000 3.529846
                    }
                }
            }
        }
    }
}
MOTION
Frames:    13
Frame Time:    0.008333
-5.261112    61.303913    122.350586    10.135044    -35.913086    -165.105255    -0.334513    0.720250    0.357495    3.846341    7.052605    0.118386    5.297658    -8.854281    -1.250907    -7.646696    -40.461796    -6.217497    31.534201    -24.127256    -9.177137    -14.391898    -0.427507    -75.245621    34.555492    6.541007    -28.465067    61.395771    5.709693    -16.510653    -22.670235    -5.066087    12.420776    7.763576    -12.750924    36.564846    -48.715858    -12.373857    47.545502    -48.132393    8.770951    4.221323    133.396957    -80.564575    123.951988    -5.195873    73.618362    12.743105    -9.561120    -9.739643    -16.588923    -0.413427    -6.580683    0.464071    -93.443588    -78.535316    -86.408752    13.134647    76.391144    -5.190060    -1.527169    -13.495201    -27.918003    0.331903    -6.087216    -0.362152    
-5.352634    61.775227    122.301033    9.980577    -35.858227    -165.218597    -0.336871    0.502646    0.406049    3.889112    7.075836    0.164144    5.293554    -8.456279    -1.461586    -7.431592    -40.326637    -6.303247    31.501244    -24.060661    -9.145629    -13.978520    -0.120842    -75.418320    33.725494    7.106276    -27.370871    61.612335    5.517159    -16.728926    -22.744556    -5.033961    12.547939    7.291500    -12.279180    37.109207    -47.989586    -11.640790    46.829727    -48.054913    8.712144    4.261814    130.174484    -81.179237    120.778465    -4.974264    72.731224    12.816185    -9.512518    -9.562692    -16.634378    -0.398126    -6.596517    0.446909    -89.959190    -78.548347    -83.019714    11.626660    75.469765    -3.869718    -1.376686    -13.239426    -27.711588    0.296922    -6.129541    -0.324004    
-5.450846    62.252922    122.248077    9.807984    -35.785431    -165.352661    -0.337039    0.289903    0.457243    3.924129    7.106771    0.212683    5.291595    -8.030160    -1.666829    -7.211857    -40.181488    -6.380216    31.447937    -23.986860    -9.130085    -13.571606    0.184078    -75.598206    32.911549    7.632174    -26.275719    61.771103    5.359875    -16.884254    -22.815456    -5.004184    12.679306    6.841894    -11.870882    37.711937    -47.231655    -10.880653    46.078796    -47.979843    8.652729    4.325847    126.294914    -81.776405    116.964828    -4.743258    71.834251    12.891831    -9.458221    -9.389659    -16.687069    -0.381416    -6.606707    0.428161    -86.337509    -78.513802    -79.518456    10.175013    74.525497    -2.601296    -1.221669    -12.976479    -27.492493    0.265148    -6.170709    -0.289349    
-5.555305    62.734341    122.191475    9.619415    -35.694988    -165.504379    -0.335601    0.080463    0.509034    3.952469    7.146954    0.261938    5.290890    -7.574642    -1.867180    -6.983798    -40.026695    -6.446964    31.374847    -23.909973    -9.129433    -13.181640    0.485169    -75.785118    32.111443    8.124541    -25.186150    61.871662    5.239537    -16.985542    -22.881392    -4.977124    12.811912    6.418434    -11.526588    38.373089    -46.443714    -10.093714    45.292274    -47.913116    8.595277    4.412970    121.651535    -82.340012    112.407059    -4.500241    70.932472    12.960620    -9.398488    -9.224575    -16.742966    -0.362452    -6.609404    0.406875    -82.635506    -78.425156    -75.958366    8.798602    73.563850    -1.398546    -1.065371    -12.708033    -27.265661    0.236973    -6.209518    -0.258616    
-5.665181    63.215965    122.131172    9.418015    -35.587414    -165.670135    -0.333126    -0.126631    0.559516    3.975483    7.197638    0.309808    5.291088    -7.090905    -2.062495    -6.744748    -39.861202    -6.502074    31.284670    -23.830826    -9.139132    -12.821071    0.776717    -75.981293    31.323488    8.588328    -24.111027    61.915894    5.156736    -17.041862    -22.940834    -4.953463    12.941895    6.024956    -11.244937    39.091499    -45.629536    -9.283166    44.469765    -47.860489    8.540439    4.522044    116.157082    -82.849411    107.019249    -4.245155    70.032593    13.014120    -9.333742    -9.071889    -16.796980    -0.340909    -6.603280    0.382687    -78.923828    -78.277847    -72.402061    7.529494    72.592041    -0.286515    -0.912385    -12.436424    -27.038357    0.213044    -6.246160    -0.232514    
-5.781190    63.701283    122.066101    9.204136    -35.461750    -165.848923    -0.330034    -0.335066    0.607652    3.994479    7.260041    0.355067    5.291783    -6.571912    -2.255606    -6.487538    -39.682213    -6.544606    31.178837    -23.752413    -9.157058    -12.495355    1.061080    -76.188087    30.535166    9.032621    -23.044722    61.908012    5.109959    -17.060587    -22.992846    -4.933971    13.068425    5.658961    -11.018498    39.874985    -44.781498    -8.442520    43.597992    -47.825859    8.486258    4.653686    109.672020    -83.288170    100.663582    -3.977711    69.128166    13.048711    -9.263820    -8.934027    -16.845291    -0.315669    -6.586655    0.354342    -75.221191    -78.066765    -68.860420    6.382366    71.603592    0.724710    -0.765222    -12.160383    -26.814522    0.193458    -6.281062    -0.211149    
-5.903278    64.190086    121.995689    8.979511    -35.317669    -166.038773    -0.326995    -0.545976    0.652019    4.011114    7.333564    0.396537    5.293066    -6.015048    -2.447428    -6.208738    -39.486168    -6.573726    31.058321    -23.674311    -9.179302    -12.211120    1.336420    -76.408623    29.741180    9.460444    -21.990234    61.853249    5.097537    -17.046227    -23.036184    -4.918917    13.190236    5.321125    -10.841582    40.725746    -43.899311    -7.573678    42.669205    -47.811771    8.429961    4.807471    102.158485    -83.630646    93.302284    -3.701675    68.219147    13.064487    -9.189502    -8.813807    -16.885357    -0.286031    -6.558203    0.321054    -71.573624    -77.788582    -65.370979    5.374138    70.599525    1.621922    -0.627234    -11.880413    -26.597948    0.178632    -6.315100    -0.194977    
-6.029806    64.676010    121.920181    8.748893    -35.156940    -166.235077    -0.324078    -0.757782    0.691241    4.025676    7.416050    0.432422    5.295585    -5.425034    -2.636409    -5.908728    -39.271446    -6.588502    30.926584    -23.598640    -9.203958    -11.975969    1.600124    -76.639999    28.948217    9.866271    -20.964197    61.757874    5.116229    -17.001427    -23.068363    -4.908406    13.306583    5.014943    -10.708764    41.631386    -42.995506    -6.692295    41.688278    -47.818829    8.368275    4.980128    93.823662    -83.847542    85.139465    -3.425240    67.317047    13.063762    -9.112846    -8.715063    -16.915312    -0.251651    -6.517789    0.282441    -68.064346    -77.446472    -62.008549    4.520213    69.594025    2.391641    -0.501692    -11.600906    -26.392792    0.168839    -6.349477    -0.184298    
-6.160119    65.157295    121.839485    8.515202    -34.980850    -166.434875    -0.321539    -0.970748    0.724545    4.039447    7.505410    0.462225    5.297919    -4.802039    -2.823524    -5.584526    -39.036751    -6.588468    30.783474    -23.529108    -9.232278    -11.788742    1.855767    -76.878593    28.158092    10.245999    -19.972853    61.627914    5.160631    -16.927212    -23.088236    -4.901417    13.418703    4.739228    -10.611810    42.583294    -42.076385    -5.808780    40.654793    -47.845581    8.297184    5.168986    84.999641    -83.919556    76.504219    -3.154741    66.424393    13.051517    -9.035195    -8.638741    -16.935064    -0.211994    -6.466152    0.237906    -64.732262    -77.043686    -58.807465    3.814024    68.591049    3.038194    -0.389758    -11.322858    -26.199024    0.163952    -6.384813    -0.178973    
-6.294579    65.635643    121.752861    8.279551    -34.789333    -166.636841    -0.319357    -1.186223    0.752012    4.053596    7.599890    0.485983    5.298336    -4.144562    -3.011111    -5.231150    -38.775917    -6.573287    30.628059    -23.465788    -9.264574    -11.645780    2.107311    -77.124931    27.370230    10.596047    -19.014938    61.466442    5.224919    -16.822939    -23.094584    -4.897143    13.529181    4.490786    -10.541296    43.577976    -41.143631    -4.928882    39.562759    -47.889679    8.212056    5.372422    76.083275    -83.837273    67.791794    -2.893394    65.537453    13.031864    -8.957306    -8.584542    -16.945473    -0.166889    -6.403903    0.187264    -61.582043    -76.581673    -55.771332    3.238389    67.587608    3.575645    -0.290638    -11.045898    -26.014568    0.162923    -6.422240    -0.177860    
-6.433819    66.113625    121.659485    8.042700    -34.582314    -166.840027    -0.317157    -1.405895    0.774081    4.068895    7.697704    0.504138    5.296390    -3.448479    -3.201415    -4.846503    -38.485489    -6.544453    30.458160    -23.409441    -9.303360    -11.540472    2.360497    -77.378471    26.585258    10.911017    -18.087994    61.274158    5.303144    -16.685711    -23.085775    -4.893425    13.641364    4.265737    -10.489544    44.611366    -40.198498    -4.058728    38.406971    -47.948486    8.108501    5.588791    67.485107    -83.600983    59.411674    -2.642881    64.651268    13.008119    -8.879947    -8.550533    -16.948694    -0.116689    -6.334693    0.130915    -58.611279    -76.061050    -52.899273    2.772699    66.579124    4.021872    -0.203499    -10.769390    -25.837366    0.163649    -6.461948    -0.178663    
-6.577031    66.588501    121.559586    7.807906    -34.362137    -167.041275    -0.314785    -1.628818    0.791279    4.086456    7.796007    0.517245    5.289745    -2.720442    -3.395128    -4.430590    -38.162235    -6.502998    30.273750    -23.357058    -9.347824    -11.467557    2.614967    -77.639900    25.815704    11.181093    -17.200201    61.052532    5.388652    -16.513556    -23.060604    -4.888551    13.757122    4.064198    -10.450896    45.666523    -39.254238    -3.214322    37.199024    -48.018967    7.984682    5.814081    59.614830    -83.223122    51.770603    -2.406374    63.770172    12.982369    -8.804114    -8.532972    -16.948154    -0.063768    -6.263603    0.071531    -55.844929    -75.487671    -50.217369    2.403253    65.571404    4.388704    -0.127566    -10.496053    -25.667765    0.163134    -6.502939    -0.178112    
-6.722926    67.056290    121.453926    7.578779    -34.132431    -167.236984    -0.311749    -1.852893    0.804488    4.105959    7.891306    0.526218    5.275883    -1.968760    -3.592518    -3.983860    -37.808491    -6.450193    30.076485    -23.306278    -9.397705    -11.421715    2.870058    -77.908401    25.078039    11.397088    -16.361794    60.803864    5.474807    -16.305521    -23.017323    -4.879991    13.878087    3.887226    -10.422121    46.720493    -38.328083    -2.413505    35.961147    -48.096458    7.841972    6.042473    52.717793    -82.728233    45.110203    -2.186913    62.901051    12.956114    -8.730107    -8.526411    -16.947748    -0.011640    -6.198702    0.013053    -53.305634    -74.870750    -47.748863    2.118940    64.572861    4.684995    -0.062295    -10.229302    -25.506628    0.158334    -6.543543    -0.172882    
